<svg width="32" height="32" viewBox="0 0 32 32" fill="none" xmlns="http://www.w3.org/2000/svg">
<circle cx="16" cy="16" r="16" fill="#E81E2D"/>
<path d="M9.5 16C10.3284 16 11 15.3284 11 14.5C11 13.6716 10.3284 13 9.5 13C8.67158 13 8 13.6716 8 14.5C8 15.3284 8.67158 16 9.5 16Z" fill="#1F1F1F"/>
<path d="M25 14.5C25 15.3286 24.3288 16 23.5 16C22.6712 16 22 15.3286 22 14.5C22 13.6714 22.6712 13 23.5 13C24.3288 13 25 13.6714 25 14.5Z" fill="#1F1F1F"/>
<path d="M23.9734 25.8128C24.444 26.2978 25.195 25.7604 24.9532 25.1137C23.6054 21.5297 20.3151 19 16.4664 19C12.6177 19 9.43654 21.4478 8.05024 24.9361C7.7978 25.5714 8.55514 26.1224 9.02151 25.642C11.6893 22.8891 17.3564 18.9704 23.9734 25.8128Z" fill="#1F1F1F"/>
<path d="M12.9116 10.4874L10.0394 7.61522C9.70013 7.27597 9.15009 7.27597 8.81084 7.61522C8.47158 7.95447 8.47158 8.50451 8.81084 8.84376L11.683 11.716C12.0223 12.0552 12.5723 12.0552 12.9116 11.716C13.2508 11.3767 13.2508 10.8267 12.9116 10.4874Z" fill="#1F1F1F"/>
<path d="M21.2606 11.715L24.1327 8.84284C24.472 8.50358 24.472 7.95354 24.1327 7.61428C23.7935 7.27502 23.2434 7.27502 22.9042 7.61428L20.032 10.4865C19.6927 10.8257 19.6927 11.3758 20.032 11.715C20.3713 12.0543 20.9213 12.0543 21.2606 11.715Z" fill="#1F1F1F"/>
</svg>
