<svg width="32" height="32" viewBox="0 0 32 32" fill="none" xmlns="http://www.w3.org/2000/svg">
<circle cx="16" cy="16" r="16" fill="#1C994A"/>
<path d="M8.11775 18.136C7.9326 18.136 7.75089 18.0537 7.62918 17.8977C7.41832 17.6286 7.46802 17.2394 7.73716 17.0286L9.84402 15.3863L7.66517 14.1057C7.37032 13.9326 7.2726 13.552 7.44574 13.2572C7.61888 12.9623 7.99944 12.8646 8.2943 13.0377L11.2583 14.7812C11.4349 14.8857 11.5497 15.0692 11.5617 15.2749C11.5754 15.4789 11.4863 15.6777 11.3252 15.8046L8.49831 18.0074C8.38517 18.0949 8.25146 18.1377 8.11775 18.1377V18.136Z" fill="#050801"/>
<path d="M23.8805 18.1358C23.7468 18.1358 23.6131 18.0929 23.5 18.0055L20.6731 15.8026C20.512 15.6758 20.4228 15.4786 20.4366 15.2729C20.4503 15.0689 20.5634 14.8838 20.74 14.7792L23.704 13.0358C23.9988 12.8626 24.3777 12.9604 24.5525 13.2552C24.7257 13.5501 24.628 13.9289 24.3331 14.1038L22.1543 15.3843L24.2611 17.0266C24.5303 17.2375 24.58 17.6266 24.3691 17.8958C24.2474 18.0518 24.064 18.134 23.8805 18.134V18.1358Z" fill="#050801"/>
<path d="M5.0603 11.3618C5.06084 11.3624 5.06161 11.3626 5.06236 11.3625C5.24364 11.33 5.41812 11.3009 5.58918 11.2736C5.96632 11.2119 6.32287 11.1518 6.66916 11.073C7.18687 10.9581 7.65659 10.8176 8.10573 10.6393C8.57887 10.4524 9.01258 10.233 9.43429 9.969C9.89544 9.68615 10.3309 9.34328 10.7337 9.01585C10.756 8.997 10.7886 8.99528 10.8143 9.009C10.84 9.02443 10.8537 9.05185 10.8486 9.081C10.7611 9.63471 10.4783 10.185 10.0292 10.6753C9.62117 11.1176 9.10002 11.4707 8.52231 11.697C7.97888 11.9113 7.38745 12.0124 6.80459 11.9936C6.78231 11.9936 6.76002 11.9918 6.73773 11.9901C6.08631 11.9524 5.51375 11.7861 5.03375 11.4913C5.00804 11.4758 4.99603 11.4467 5.00117 11.4176C5.00624 11.3888 5.02965 11.3667 5.05826 11.3612C5.059 11.3611 5.05977 11.3613 5.0603 11.3618Z" fill="#050801"/>
<path d="M26.9397 11.3618C26.9391 11.3624 26.9384 11.3626 26.9376 11.3625C26.7563 11.33 26.5819 11.3009 26.4108 11.2736C26.0337 11.2119 25.6771 11.1518 25.3308 11.073C24.8131 10.9581 24.3434 10.8176 23.8943 10.6393C23.4211 10.4524 22.9874 10.233 22.5657 9.969C22.1045 9.68615 21.6691 9.34328 21.2663 9.01585C21.244 8.997 21.2114 8.99528 21.1857 9.009C21.16 9.02443 21.1463 9.05185 21.1514 9.081C21.2388 9.63471 21.5217 10.185 21.9708 10.6753C22.3788 11.1176 22.9 11.4707 23.4777 11.697C24.0211 11.9113 24.6126 12.0124 25.1954 11.9936C25.2177 11.9936 25.24 11.9918 25.2623 11.9901C25.9137 11.9524 26.4863 11.7861 26.9663 11.4913C26.992 11.4758 27.004 11.4467 26.9988 11.4176C26.9938 11.3888 26.9703 11.3667 26.9417 11.3612C26.941 11.3611 26.9402 11.3613 26.9397 11.3618Z" fill="#050801"/>
<path d="M20.4605 19C20.6396 19 20.8085 19.0827 20.9217 19.2258L22.8696 21.6956C23.0741 21.9559 23.0335 22.3351 22.7801 22.5436C22.525 22.7522 22.1533 22.7108 21.9489 22.4523L20.5061 20.6236L18.4737 23.7311C18.3639 23.8983 18.1797 24 17.9821 24C17.7844 24 17.6003 23.9 17.4904 23.7311L15.5003 20.6908L13.5101 23.7311C13.4003 23.8983 13.2161 24 13.0185 24C12.8208 24 12.6367 23.8983 12.5268 23.7311L10.4944 20.6236L9.05165 22.4523C8.84722 22.7125 8.47387 22.7522 8.22045 22.5436C7.96534 22.3351 7.92648 21.9541 8.13091 21.6956L10.0788 19.2258C10.1971 19.0758 10.3795 18.9914 10.5654 19.0017C10.7529 19.0103 10.9269 19.1103 11.0317 19.2689L13.0202 22.3092L15.0103 19.2689C15.1201 19.1017 15.3043 19 15.502 19C15.6996 19 15.8838 19.1 15.9936 19.2689L17.9837 22.3092L19.9722 19.2689C20.077 19.1086 20.2493 19.0103 20.4385 19.0017C20.447 19.0017 20.4554 19.0017 20.4656 19.0017L20.4605 19Z" fill="#050801"/>
</svg>
