<svg width="32" height="32" viewBox="0 0 32 32" fill="none" xmlns="http://www.w3.org/2000/svg">
<circle cx="16" cy="16" r="16" fill="#8F25A3"/>
<path d="M15.5644 25.5364C17.581 25.5364 19.2158 22.7648 19.2158 19.3458C19.2158 15.9269 17.581 13.1553 15.5644 13.1553C13.5478 13.1553 11.913 15.9269 11.913 19.3458C11.913 22.7648 13.5478 25.5364 15.5644 25.5364Z" fill="black"/>
<path d="M12.0926 13.2025C13.2422 10.8599 12.8286 8.30055 11.1687 7.48595C9.5088 6.67134 7.23124 7.91 6.0816 10.2526C4.93197 12.5951 5.3456 15.1545 7.00548 15.9691C8.66536 16.7837 10.9429 15.5451 12.0926 13.2025Z" fill="white"/>
<path d="M24.1279 15.9579C25.7878 15.1433 26.2014 12.5839 25.0518 10.2413C23.9021 7.89878 21.6246 6.66013 19.9647 7.47474C18.3048 8.28934 17.8912 10.8487 19.0408 13.1913C20.1905 15.5338 22.468 16.7725 24.1279 15.9579Z" fill="white"/>
</svg>
