<svg width="32" height="32" viewBox="0 0 32 32" fill="none" xmlns="http://www.w3.org/2000/svg">
<circle cx="16" cy="16" r="16" fill="#FAD10C"/>
<path d="M12 10.5C12 11.3286 11.3288 12 10.5 12C9.67118 12 9 11.3286 9 10.5C9 9.67139 9.67118 9 10.5 9C11.3288 9 12 9.67139 12 10.5Z" fill="#D78920"/>
<path d="M23.4707 10.5C23.4707 11.3286 22.7995 12 21.9707 12C21.1419 12 20.4707 11.3286 20.4707 10.5C20.4707 9.67139 21.1419 9 21.9707 9C22.7995 9 23.4707 9.67139 23.4707 10.5Z" fill="#D78920"/>
<path d="M7.12457 16C6.52597 16 6.05759 16.5247 6.19543 17.1073C7.26459 21.6259 11.4703 25 16.5009 25C21.5317 25 25.7374 21.6257 26.805 17.1069C26.9426 16.5245 26.4743 16 25.8758 16H7.12457Z" fill="#D78920"/>
</svg>
