<svg width="32" height="32" viewBox="0 0 32 32" fill="none" xmlns="http://www.w3.org/2000/svg">
<circle cx="16" cy="16" r="16" fill="#1F65A1"/>
<path d="M11.4051 13.7227C11.4051 14.5513 10.7339 15.2227 9.90513 15.2227C9.07631 15.2227 8.40512 14.5513 8.40512 13.7227C8.40512 12.894 9.07631 12.2227 9.90513 12.2227C10.7339 12.2227 11.4051 12.894 11.4051 13.7227Z" fill="#050801"/>
<path d="M23.0767 13.7227C23.0767 14.5513 22.4056 15.2227 21.5767 15.2227C20.7479 15.2227 20.0767 14.5513 20.0767 13.7227C20.0767 12.894 20.7479 12.2227 21.5767 12.2227C22.4056 12.2227 23.0767 12.894 23.0767 13.7227Z" fill="#050801"/>
<path d="M24.7658 10.8696C24.5948 10.8195 24.4294 10.773 24.2677 10.7284C23.9109 10.628 23.5763 10.5351 23.2511 10.4217C22.766 10.2582 22.3293 10.0723 21.9167 9.85489C21.4818 9.62443 21.0878 9.36981 20.7105 9.07245C20.2979 8.75278 19.915 8.37735 19.5619 8.02051C19.5415 8.00007 19.5117 7.9945 19.4857 8.00565C19.4597 8.0168 19.443 8.04282 19.4448 8.07255C19.4708 8.61339 19.6846 9.17281 20.0637 9.68948C20.4094 10.1578 20.874 10.5518 21.4037 10.8288C21.9037 11.0908 22.4612 11.2525 23.0225 11.2934C23.0448 11.2934 23.0652 11.2971 23.0875 11.2971C23.7176 11.3306 24.2844 11.2302 24.777 10.9979C24.803 10.9849 24.8178 10.9589 24.816 10.931C24.8141 10.9031 24.7937 10.8789 24.7658 10.8696Z" fill="#050801"/>
<path d="M6.05034 10.8696C6.22133 10.8195 6.38673 10.773 6.54843 10.7284C6.90527 10.628 7.23981 10.5351 7.56505 10.4217C8.05013 10.2582 8.48688 10.0723 8.89948 9.85489C9.33438 9.62443 9.72838 9.36981 10.1057 9.07245C10.5183 8.75278 10.9011 8.37735 11.2542 8.02051C11.2747 8.00007 11.3044 7.9945 11.3304 8.00565C11.3565 8.0168 11.3732 8.04282 11.3713 8.07255C11.3453 8.61339 11.1316 9.17281 10.7524 9.68948C10.4067 10.1578 9.94212 10.5518 9.41244 10.8288C8.91249 11.0908 8.35493 11.2525 7.79365 11.2934C7.77135 11.2934 7.75089 11.2971 7.72859 11.2971C7.09855 11.3306 6.5317 11.2302 6.03919 10.9979C6.01317 10.9849 5.9983 10.9589 6.00016 10.931C6.00201 10.9031 6.02246 10.8789 6.05034 10.8696Z" fill="#050801"/>
<path d="M18.4224 20.0875C17.5894 19.2305 16.461 18.7469 15.3308 18.7714C14.2195 18.7755 13.1014 19.2591 12.2598 20.0936C11.8356 20.5201 11.48 21.0404 11.2327 21.6035C10.9716 22.2136 10.836 22.8298 10.8308 23.4318C10.8308 23.5766 10.9064 23.7052 11.0197 23.7521C11.1348 23.7991 11.2619 23.7542 11.3358 23.6399C11.6398 23.1747 11.9266 22.8033 12.2134 22.5095C12.5226 22.1973 12.8506 21.9382 13.189 21.7362C13.864 21.3362 14.6077 21.122 15.3428 21.1179C16.0968 21.1118 16.8113 21.3117 17.4709 21.7198C18.1493 22.132 18.7728 22.7788 19.3224 23.6379C19.3774 23.7236 19.4615 23.7705 19.5474 23.7705C19.5783 23.7705 19.6092 23.7644 19.6401 23.7521C19.7552 23.7052 19.8325 23.5746 19.8308 23.4297C19.8153 22.2157 19.288 20.9669 18.4207 20.0854L18.4224 20.0875Z" fill="#050801"/>
<path d="M23.3775 18.0562C22.997 17.5854 22.2822 17.5854 21.9017 18.0562C18.3964 22.394 18.418 25.0498 18.458 25.5414C18.4625 25.597 18.4669 25.6528 18.468 25.7086C18.5129 27.9743 20.3632 29.7968 22.6396 29.7968C24.9161 29.7968 26.7663 27.9743 26.8112 25.7086C26.8123 25.6528 26.8167 25.597 26.8212 25.5414C26.8612 25.0498 26.8828 22.394 23.3775 18.0562Z" fill="#11C4E5"/>
</svg>
